<svg width="968" height="465" viewBox="0 0 968 465" fill="none" xmlns="http://www.w3.org/2000/svg">
<rect width="968" height="465" fill="#DDCBBD"/>
<path d="M393.99 192.801V34.9897H427.169V192.801H393.99Z" fill="#222222"/>
<path d="M512.408 194.503C500.215 194.503 489.368 191.951 479.868 186.846C470.51 181.742 463.066 174.794 457.536 166.003C452.148 157.071 449.454 146.933 449.454 135.589C449.454 124.104 452.148 113.966 457.536 105.176C463.066 96.2428 470.51 89.2951 479.868 84.3325C489.368 79.228 500.215 76.6758 512.408 76.6758C524.461 76.6758 535.237 79.228 544.736 84.3325C554.236 89.2951 561.68 96.1719 567.068 104.963C572.456 113.754 575.15 123.963 575.15 135.589C575.15 146.933 572.456 157.071 567.068 166.003C561.68 174.794 554.236 181.742 544.736 186.846C535.237 191.951 524.461 194.503 512.408 194.503ZM512.408 167.279C517.938 167.279 522.901 166.003 527.296 163.451C531.692 160.899 535.166 157.283 537.718 152.604C540.27 147.783 541.546 142.112 541.546 135.589C541.546 128.925 540.27 123.254 537.718 118.575C535.166 113.896 531.692 110.28 527.296 107.728C522.901 105.176 517.938 103.899 512.408 103.899C506.879 103.899 501.916 105.176 497.521 107.728C493.125 110.28 489.58 113.896 486.886 118.575C484.334 123.254 483.058 128.925 483.058 135.589C483.058 142.112 484.334 147.783 486.886 152.604C489.58 157.283 493.125 160.899 497.521 163.451C501.916 166.003 506.879 167.279 512.408 167.279Z" fill="#222222"/>
<path d="M478.447 35.1872L432.871 94.3911V35.1872H478.447Z" fill="#222222"/>
<rect width="219.14" height="197.493" transform="translate(375 251.472)" fill="#222222"/>
<path d="M393.99 428.273V270.462H427.169V428.273H393.99Z" fill="white"/>
<path d="M512.408 429.975C500.215 429.975 489.368 427.423 479.868 422.318C470.51 417.214 463.066 410.266 457.536 401.475C452.148 392.542 449.454 382.404 449.454 371.061C449.454 359.576 452.148 349.438 457.536 340.647C463.066 331.715 470.51 324.767 479.868 319.804C489.368 314.7 500.215 312.148 512.408 312.148C524.461 312.148 535.237 314.7 544.736 319.804C554.236 324.767 561.68 331.644 567.068 340.435C572.456 349.226 575.15 359.435 575.15 371.061C575.15 382.404 572.456 392.542 567.068 401.475C561.68 410.266 554.236 417.214 544.736 422.318C535.237 427.423 524.461 429.975 512.408 429.975ZM512.408 402.751C517.938 402.751 522.901 401.475 527.296 398.923C531.692 396.371 535.166 392.755 537.718 388.076C540.27 383.255 541.546 377.584 541.546 371.061C541.546 364.397 540.27 358.726 537.718 354.047C535.166 349.368 531.692 345.752 527.296 343.2C522.901 340.647 517.938 339.371 512.408 339.371C506.879 339.371 501.916 340.647 497.521 343.2C493.125 345.752 489.58 349.368 486.886 354.047C484.334 358.726 483.058 364.397 483.058 371.061C483.058 377.584 484.334 383.255 486.886 388.076C489.58 392.755 493.125 396.371 497.521 398.923C501.916 401.475 506.879 402.751 512.408 402.751Z" fill="white"/>
<path d="M478.447 270.659L432.871 329.863V270.659H478.447Z" fill="white"/>
<rect width="219.14" height="197.493" transform="translate(633.26 251.472)" fill="#222222"/>
<path d="M652.25 428.273V270.462H685.428V428.273H652.25Z" fill="#F6F1EB"/>
<path d="M770.668 429.975C758.474 429.975 747.627 427.423 738.127 422.318C728.769 417.214 721.325 410.266 715.796 401.475C710.408 392.542 707.714 382.404 707.714 371.061C707.714 359.576 710.408 349.438 715.796 340.647C721.325 331.715 728.769 324.767 738.127 319.804C747.627 314.7 758.474 312.148 770.668 312.148C782.72 312.148 793.496 314.7 802.996 319.804C812.496 324.767 819.94 331.644 825.328 340.435C830.716 349.226 833.41 359.435 833.41 371.061C833.41 382.404 830.716 392.542 825.328 401.475C819.94 410.266 812.496 417.214 802.996 422.318C793.496 427.423 782.72 429.975 770.668 429.975ZM770.668 402.751C776.198 402.751 781.161 401.475 785.556 398.923C789.952 396.371 793.425 392.755 795.978 388.076C798.53 383.255 799.806 377.584 799.806 371.061C799.806 364.397 798.53 358.726 795.978 354.047C793.425 349.368 789.952 345.752 785.556 343.2C781.161 340.647 776.198 339.371 770.668 339.371C765.138 339.371 760.176 340.647 755.78 343.2C751.385 345.752 747.84 349.368 745.146 354.047C742.594 358.726 741.318 364.397 741.318 371.061C741.318 377.584 742.594 383.255 745.146 388.076C747.84 392.755 751.385 396.371 755.78 398.923C760.176 401.475 765.138 402.751 770.668 402.751Z" fill="#F6F1EB"/>
<path d="M736.706 270.659L691.131 329.863V270.659H736.706Z" fill="#F6F1EB"/>
<rect width="219.14" height="197.493" transform="translate(633.26 16)" fill="#F6F1EB"/>
<path d="M652.25 192.801V34.9897H685.428V192.801H652.25Z" fill="#222222"/>
<path d="M770.668 194.503C758.474 194.503 747.627 191.951 738.127 186.846C728.769 181.742 721.325 174.794 715.796 166.003C710.408 157.071 707.714 146.933 707.714 135.589C707.714 124.104 710.408 113.966 715.796 105.176C721.325 96.2428 728.769 89.2951 738.127 84.3325C747.627 79.228 758.474 76.6758 770.668 76.6758C782.72 76.6758 793.496 79.228 802.996 84.3325C812.496 89.2951 819.94 96.1719 825.328 104.963C830.716 113.754 833.41 123.963 833.41 135.589C833.41 146.933 830.716 157.071 825.328 166.003C819.94 174.794 812.496 181.742 802.996 186.846C793.496 191.951 782.72 194.503 770.668 194.503ZM770.668 167.279C776.198 167.279 781.161 166.003 785.556 163.451C789.952 160.899 793.425 157.283 795.978 152.604C798.53 147.783 799.806 142.112 799.806 135.589C799.806 128.925 798.53 123.254 795.978 118.575C793.425 113.896 789.952 110.28 785.556 107.728C781.161 105.176 776.198 103.899 770.668 103.899C765.138 103.899 760.176 105.176 755.78 107.728C751.385 110.28 747.84 113.896 745.146 118.575C742.594 123.254 741.318 128.925 741.318 135.589C741.318 142.112 742.594 147.783 745.146 152.604C747.84 157.283 751.385 160.899 755.78 163.451C760.176 166.003 765.138 167.279 770.668 167.279Z" fill="#222222"/>
<path d="M736.706 35.1872L691.131 94.3911V35.1872H736.706Z" fill="#222222"/>
<path d="M134.99 192.801V34.9897H168.169V192.801H134.99Z" fill="white"/>
<path d="M253.408 194.503C241.215 194.503 230.368 191.951 220.868 186.846C211.51 181.742 204.066 174.794 198.536 166.003C193.148 157.071 190.454 146.933 190.454 135.589C190.454 124.104 193.148 113.966 198.536 105.176C204.066 96.2428 211.51 89.2951 220.868 84.3325C230.368 79.228 241.215 76.6758 253.408 76.6758C265.461 76.6758 276.237 79.228 285.736 84.3325C295.236 89.2951 302.68 96.1719 308.068 104.963C313.456 113.754 316.15 123.963 316.15 135.589C316.15 146.933 313.456 157.071 308.068 166.003C302.68 174.794 295.236 181.742 285.736 186.846C276.237 191.951 265.461 194.503 253.408 194.503ZM253.408 167.279C258.938 167.279 263.901 166.003 268.296 163.451C272.692 160.899 276.166 157.283 278.718 152.604C281.27 147.783 282.546 142.112 282.546 135.589C282.546 128.925 281.27 123.254 278.718 118.575C276.166 113.896 272.692 110.28 268.296 107.728C263.901 105.176 258.938 103.899 253.408 103.899C247.879 103.899 242.916 105.176 238.521 107.728C234.125 110.28 230.58 113.896 227.886 118.575C225.334 123.254 224.058 128.925 224.058 135.589C224.058 142.112 225.334 147.783 227.886 152.604C230.58 157.283 234.125 160.899 238.521 163.451C242.916 166.003 247.879 167.279 253.408 167.279Z" fill="white"/>
<path d="M219.447 35.1872L173.871 94.3911V35.1872H219.447Z" fill="white"/>
<rect width="219.14" height="197.493" transform="translate(116 251.472)" fill="#222222"/>
<path d="M134.99 428.273V270.462H168.169V428.273H134.99Z" fill="#DDCBBD"/>
<path d="M253.408 429.975C241.215 429.975 230.368 427.423 220.868 422.318C211.51 417.214 204.066 410.266 198.536 401.475C193.148 392.542 190.454 382.404 190.454 371.061C190.454 359.576 193.148 349.438 198.536 340.647C204.066 331.715 211.51 324.767 220.868 319.804C230.368 314.7 241.215 312.148 253.408 312.148C265.461 312.148 276.237 314.7 285.736 319.804C295.236 324.767 302.68 331.644 308.068 340.435C313.456 349.226 316.15 359.435 316.15 371.061C316.15 382.404 313.456 392.542 308.068 401.475C302.68 410.266 295.236 417.214 285.736 422.318C276.237 427.423 265.461 429.975 253.408 429.975ZM253.408 402.751C258.938 402.751 263.901 401.475 268.296 398.923C272.692 396.371 276.166 392.755 278.718 388.076C281.27 383.255 282.546 377.584 282.546 371.061C282.546 364.397 281.27 358.726 278.718 354.047C276.166 349.368 272.692 345.752 268.296 343.2C263.901 340.647 258.938 339.371 253.408 339.371C247.879 339.371 242.916 340.647 238.521 343.2C234.125 345.752 230.58 349.368 227.886 354.047C225.334 358.726 224.058 364.397 224.058 371.061C224.058 377.584 225.334 383.255 227.886 388.076C230.58 392.755 234.125 396.371 238.521 398.923C242.916 401.475 247.879 402.751 253.408 402.751Z" fill="#DDCBBD"/>
<path d="M219.447 270.659L173.871 329.863V270.659H219.447Z" fill="#DDCBBD"/>
</svg>
