<svg width="968" height="465" viewBox="0 0 968 465" fill="none" xmlns="http://www.w3.org/2000/svg">
<rect width="968" height="465" fill="#DDCBBD"/>
<path d="M321.978 203.138V86.9777H346.399V203.138H321.978Z" fill="#222222"/>
<path d="M409.142 204.391C400.166 204.391 392.182 202.512 385.19 198.755C378.302 194.998 372.822 189.884 368.752 183.413C364.786 176.838 362.803 169.376 362.803 161.026C362.803 152.572 364.786 145.11 368.752 138.639C372.822 132.064 378.302 126.95 385.19 123.297C392.182 119.54 400.166 117.662 409.142 117.662C418.013 117.662 425.945 119.54 432.938 123.297C439.93 126.95 445.41 132.012 449.375 138.483C453.341 144.954 455.324 152.468 455.324 161.026C455.324 169.376 453.341 176.838 449.375 183.413C445.41 189.884 439.93 194.998 432.938 198.755C425.945 202.512 418.013 204.391 409.142 204.391ZM409.142 184.352C413.212 184.352 416.865 183.413 420.101 181.534C423.336 179.656 425.893 176.994 427.772 173.55C429.65 170.002 430.589 165.827 430.589 161.026C430.589 156.121 429.65 151.946 427.772 148.502C425.893 145.058 423.336 142.397 420.101 140.518C416.865 138.639 413.212 137.7 409.142 137.7C405.072 137.7 401.419 138.639 398.183 140.518C394.948 142.397 392.339 145.058 390.356 148.502C388.477 151.946 387.538 156.121 387.538 161.026C387.538 165.827 388.477 170.002 390.356 173.55C392.339 176.994 394.948 179.656 398.183 181.534C401.419 183.413 405.072 184.352 409.142 184.352Z" fill="#222222"/>
<path d="M384.144 87.1231L350.597 130.701V87.1231H384.144Z" fill="#222222"/>
<rect width="161.302" height="145.368" transform="translate(308 246.324)" fill="#222222"/>
<path d="M321.978 376.462V260.302H346.399V376.462H321.978Z" fill="white"/>
<path d="M409.142 377.715C400.166 377.715 392.182 375.836 385.19 372.079C378.302 368.321 372.822 363.208 368.752 356.737C364.786 350.162 362.803 342.699 362.803 334.35C362.803 325.896 364.786 318.434 368.752 311.963C372.822 305.388 378.302 300.274 385.19 296.621C392.182 292.864 400.166 290.985 409.142 290.985C418.013 290.985 425.945 292.864 432.938 296.621C439.93 300.274 445.41 305.336 449.375 311.807C453.341 318.277 455.324 325.792 455.324 334.35C455.324 342.699 453.341 350.162 449.375 356.737C445.41 363.208 439.93 368.321 432.938 372.079C425.945 375.836 418.013 377.715 409.142 377.715ZM409.142 357.676C413.212 357.676 416.865 356.737 420.101 354.858C423.336 352.98 425.893 350.318 427.772 346.874C429.65 343.326 430.589 339.151 430.589 334.35C430.589 329.445 429.65 325.27 427.772 321.826C425.893 318.382 423.336 315.72 420.101 313.842C416.865 311.963 413.212 311.024 409.142 311.024C405.072 311.024 401.419 311.963 398.183 313.842C394.948 315.72 392.339 318.382 390.356 321.826C388.477 325.27 387.538 329.445 387.538 334.35C387.538 339.151 388.477 343.326 390.356 346.874C392.339 350.318 394.948 352.98 398.183 354.858C401.419 356.737 405.072 357.676 409.142 357.676Z" fill="white"/>
<path d="M384.144 260.447L350.597 304.025V260.447H384.144Z" fill="white"/>
<rect width="161.302" height="145.368" transform="translate(498.097 246.324)" fill="#222222"/>
<path d="M512.075 376.462V260.302H536.497V376.462H512.075Z" fill="#F6F1EB"/>
<path d="M599.239 377.715C590.264 377.715 582.28 375.836 575.287 372.079C568.399 368.321 562.919 363.208 558.849 356.737C554.883 350.162 552.9 342.699 552.9 334.35C552.9 325.896 554.883 318.434 558.849 311.963C562.919 305.388 568.399 300.274 575.287 296.621C582.28 292.864 590.264 290.985 599.239 290.985C608.11 290.985 616.042 292.864 623.035 296.621C630.027 300.274 635.507 305.336 639.473 311.807C643.439 318.277 645.422 325.792 645.422 334.35C645.422 342.699 643.439 350.162 639.473 356.737C635.507 363.208 630.027 368.321 623.035 372.079C616.042 375.836 608.11 377.715 599.239 377.715ZM599.239 357.676C603.309 357.676 606.962 356.737 610.198 354.858C613.433 352.98 615.99 350.318 617.869 346.874C619.747 343.326 620.687 339.151 620.687 334.35C620.687 329.445 619.747 325.27 617.869 321.826C615.99 318.382 613.433 315.72 610.198 313.842C606.962 311.963 603.309 311.024 599.239 311.024C595.169 311.024 591.516 311.963 588.281 313.842C585.045 315.72 582.436 318.382 580.453 321.826C578.574 325.27 577.635 329.445 577.635 334.35C577.635 339.151 578.574 343.326 580.453 346.874C582.436 350.318 585.045 352.98 588.281 354.858C591.516 356.737 595.169 357.676 599.239 357.676Z" fill="#F6F1EB"/>
<path d="M574.241 260.447L540.694 304.025V260.447H574.241Z" fill="#F6F1EB"/>
<rect width="161.302" height="145.368" transform="translate(498.097 73)" fill="#F6F1EB"/>
<path d="M512.075 203.138V86.9777H536.497V203.138H512.075Z" fill="#222222"/>
<path d="M599.239 204.391C590.264 204.391 582.28 202.512 575.287 198.755C568.399 194.998 562.919 189.884 558.849 183.413C554.883 176.838 552.9 169.376 552.9 161.026C552.9 152.572 554.883 145.11 558.849 138.639C562.919 132.064 568.399 126.95 575.287 123.297C582.28 119.54 590.264 117.662 599.239 117.662C608.11 117.662 616.042 119.54 623.035 123.297C630.027 126.95 635.507 132.012 639.473 138.483C643.439 144.954 645.422 152.468 645.422 161.026C645.422 169.376 643.439 176.838 639.473 183.413C635.507 189.884 630.027 194.998 623.035 198.755C616.042 202.512 608.11 204.391 599.239 204.391ZM599.239 184.352C603.309 184.352 606.962 183.413 610.198 181.534C613.433 179.656 615.99 176.994 617.869 173.55C619.747 170.002 620.687 165.827 620.687 161.026C620.687 156.121 619.747 151.946 617.869 148.502C615.99 145.058 613.433 142.397 610.198 140.518C606.962 138.639 603.309 137.7 599.239 137.7C595.169 137.7 591.516 138.639 588.281 140.518C585.045 142.397 582.436 145.058 580.453 148.502C578.574 151.946 577.635 156.121 577.635 161.026C577.635 165.827 578.574 170.002 580.453 173.55C582.436 176.994 585.045 179.656 588.281 181.534C591.516 183.413 595.169 184.352 599.239 184.352Z" fill="#222222"/>
<path d="M574.241 87.1231L540.694 130.701V87.1231H574.241Z" fill="#222222"/>
</svg>
