<svg width="1628" height="340" viewBox="0 0 1628 340" fill="none" xmlns="http://www.w3.org/2000/svg">
<rect width="1628" height="340" fill="#FEFCF7"/>
<path d="M215.488 122.535C215.488 129.137 216.895 134.898 219.707 139.82C222.52 144.742 226.465 148.57 231.543 151.305C236.66 154 242.598 155.348 249.355 155.348C255.996 155.348 261.816 154.137 266.816 151.715C271.855 149.254 275.762 145.836 278.535 141.461C281.309 137.086 282.695 131.969 282.695 126.109C282.695 122.516 282.07 119.215 280.82 116.207C279.57 113.16 277.891 110.719 275.781 108.883C274.961 108.219 274.258 107.77 273.672 107.535C273.125 107.262 272.48 107.125 271.738 107.125C270.684 107.125 269.824 107.438 269.16 108.062C268.535 108.648 268.223 109.391 268.223 110.289C268.223 110.992 268.34 111.578 268.574 112.047C268.809 112.477 269.16 112.906 269.629 113.336C270.098 113.727 270.645 114.215 271.27 114.801C272.715 116.168 273.789 117.828 274.492 119.781C275.234 121.695 275.605 123.766 275.605 125.992C275.605 130.406 274.512 134.293 272.324 137.652C270.176 140.973 267.129 143.551 263.184 145.387C259.277 147.223 254.707 148.141 249.473 148.141C244.121 148.141 239.434 147.086 235.41 144.977C231.387 142.828 228.262 139.82 226.035 135.953C223.809 132.086 222.695 127.594 222.695 122.477C222.695 118.062 223.73 113.844 225.801 109.82C227.91 105.797 230.762 102.574 234.355 100.152L231.074 93.7656C227.871 95.7578 225.098 98.2773 222.754 101.324C220.449 104.332 218.652 107.652 217.363 111.285C216.113 114.918 215.488 118.668 215.488 122.535ZM229.844 93.2969C229.844 97.2031 230.703 100.719 232.422 103.844C234.18 106.969 236.68 109.449 239.922 111.285C243.203 113.121 247.148 114.039 251.758 114.039C252.695 114.039 253.516 113.688 254.219 112.984C254.961 112.242 255.332 111.383 255.332 110.406C255.332 109.43 254.961 108.59 254.219 107.887C253.516 107.145 252.695 106.773 251.758 106.773C248.633 106.773 245.977 106.188 243.789 105.016C241.602 103.805 239.941 102.184 238.809 100.152C237.676 98.082 237.109 95.7969 237.109 93.2969C237.109 90.5625 237.793 88.082 239.16 85.8555C240.527 83.5898 242.441 81.793 244.902 80.4648C247.402 79.0977 250.332 78.4141 253.691 78.4141C255.762 78.4141 257.852 78.7266 259.961 79.3516C262.109 79.9375 264.18 80.875 266.172 82.1641L270.391 76.2461C267.773 74.5273 265.039 73.2578 262.188 72.4375C259.375 71.6172 256.562 71.207 253.75 71.207C249.102 71.207 244.98 72.2031 241.387 74.1953C237.793 76.1484 234.961 78.7852 232.891 82.1055C230.859 85.4258 229.844 89.1562 229.844 93.2969ZM259.668 91.6562C259.59 92.8281 259.902 93.7656 260.605 94.4688C261.309 95.1719 262.168 95.5234 263.184 95.5234C264.16 95.5234 264.98 95.2109 265.645 94.5859C266.348 93.9609 266.719 93.082 266.758 91.9492C266.914 88.1602 267.871 84.7812 269.629 81.8125C271.426 78.8438 273.809 76.5195 276.777 74.8398C279.785 73.1211 283.242 72.2617 287.148 72.2617C290.508 72.2617 293.555 73.082 296.289 74.7227C299.062 76.3242 301.016 78.6094 302.148 81.5781C302.344 82.0078 302.598 82.2617 302.91 82.3398C303.223 82.3789 303.633 82.3203 304.141 82.1641C305.234 81.7734 306.367 81.5 307.539 81.3438C308.711 81.1484 309.883 81.0508 311.055 81.0508C314.688 81.0898 318.008 81.9688 321.016 83.6875C324.062 85.3672 326.504 87.75 328.34 90.8359C330.176 93.9219 331.094 97.5547 331.094 101.734C331.094 106.07 330.176 109.723 328.34 112.691C326.543 115.66 324.199 118.238 321.309 120.426C318.457 122.613 315.43 124.664 312.227 126.578C309.023 128.453 305.996 130.484 303.145 132.672C300.293 134.82 297.949 137.34 296.113 140.23C294.316 143.121 293.418 146.715 293.418 151.012C293.418 154.918 294.336 158.297 296.172 161.148C298.047 163.961 300.605 166.148 303.848 167.711C307.129 169.234 310.879 169.996 315.098 169.996C315.723 169.996 316.387 169.977 317.09 169.938C317.832 169.898 318.594 169.859 319.375 169.82C319.766 173.297 320.645 176.48 322.012 179.371C323.418 182.262 325.254 184.586 327.52 186.344C329.824 188.141 332.539 189.039 335.664 189.039C338.945 189.039 341.816 188.102 344.277 186.227C346.777 184.352 348.848 181.793 350.488 178.551C352.129 175.309 353.359 171.598 354.18 167.418C355.039 163.199 355.469 158.785 355.469 154.176C355.469 151.129 355.391 148.434 355.234 146.09C355.078 143.707 354.883 141.441 354.648 139.293L347.383 141.461C347.656 143.648 347.871 145.738 348.027 147.73C348.184 149.723 348.262 151.871 348.262 154.176C348.262 159.41 347.734 164.117 346.68 168.297C345.625 172.438 344.141 175.719 342.227 178.141C340.352 180.602 338.164 181.832 335.664 181.832C333.359 181.832 331.426 180.973 329.863 179.254C328.34 177.535 327.188 175.348 326.406 172.691C325.664 170.074 325.293 167.32 325.293 164.43C325.293 164.117 325.195 163.863 325 163.668C324.844 163.473 324.57 163.395 324.18 163.434C323.477 163.434 322.539 163.453 321.367 163.492C320.195 163.531 319.297 163.551 318.672 163.551C313.203 163.551 308.828 162.516 305.547 160.445C302.266 158.375 300.625 155.191 300.625 150.895C300.625 147.379 301.523 144.43 303.32 142.047C305.156 139.664 307.5 137.535 310.352 135.66C313.203 133.785 316.23 131.91 319.434 130.035C322.637 128.16 325.664 126.012 328.516 123.59C331.367 121.168 333.711 118.219 335.547 114.742C337.383 111.227 338.301 106.891 338.301 101.734C338.301 97.5156 337.598 93.707 336.191 90.3086C334.824 86.9102 332.93 83.9805 330.508 81.5195C328.125 79.0586 325.332 77.1641 322.129 75.8359C318.926 74.5078 315.488 73.8438 311.816 73.8438C311.074 73.8438 310.215 73.9219 309.238 74.0781C308.301 74.1953 307.324 74.3906 306.309 74.6641C304.238 71.6172 301.504 69.2734 298.105 67.6328C294.707 65.9531 291.055 65.1133 287.148 65.1133C281.953 65.1133 277.324 66.2461 273.262 68.5117C269.238 70.7383 266.016 73.8438 263.594 77.8281C261.211 81.8125 259.902 86.4219 259.668 91.6562ZM327.109 146.5C327.109 147.477 327.461 148.297 328.164 148.961C328.867 149.625 329.727 149.996 330.742 150.074C336.914 150.348 342.305 149.391 346.914 147.203C351.562 144.977 355.176 141.773 357.754 137.594C360.332 133.375 361.621 128.375 361.621 122.594C361.621 117.672 360.508 113.238 358.281 109.293C356.094 105.309 353.027 102.066 349.082 99.5664C345.137 97.0664 340.527 95.5234 335.254 94.9375L334.316 102.145C340.332 102.301 345.176 104.254 348.848 108.004C352.559 111.754 354.414 116.617 354.414 122.594C354.414 129.039 352.246 134.117 347.91 137.828C343.574 141.539 337.852 143.219 330.742 142.867C329.727 142.789 328.867 143.121 328.164 143.863C327.461 144.605 327.109 145.484 327.109 146.5ZM296.875 154.938C295.273 155.484 293.496 155.895 291.543 156.168C289.59 156.441 287.734 156.578 285.977 156.578C282.891 156.578 279.844 156.207 276.836 155.465C273.828 154.684 271.094 153.59 268.633 152.184C266.211 150.777 264.316 149.059 262.949 147.027L256.914 151.891C259.961 155.562 263.945 158.473 268.867 160.621C273.789 162.73 279.258 163.785 285.273 163.785C287.344 163.785 289.59 163.629 292.012 163.316C294.473 163.004 296.875 162.516 299.219 161.852L296.875 154.938ZM278.125 116.5L280.586 123.238C287.383 121.91 292.402 119.195 295.645 115.094C298.887 110.953 300.508 105.621 300.508 99.0977C300.508 98.1211 300.137 97.2812 299.395 96.5781C298.691 95.875 297.832 95.5234 296.816 95.5234C295.84 95.5234 295 95.875 294.297 96.5781C293.594 97.2812 293.242 98.1211 293.242 99.0977C293.242 104.02 292.07 107.945 289.727 110.875C287.422 113.766 283.555 115.641 278.125 116.5Z" fill="#222222"/>
<path d="M510.477 115.211C510.477 121.461 511.648 127.34 513.992 132.848C516.375 138.316 519.656 143.141 523.836 147.32C528.016 151.5 532.84 154.781 538.309 157.164C543.816 159.508 549.695 160.68 555.945 160.68C561.062 160.68 565.945 159.859 570.594 158.219C575.242 156.578 579.461 154.312 583.25 151.422L613.777 182.066C614.324 182.574 614.93 182.965 615.594 183.238C616.297 183.551 617.039 183.707 617.82 183.707C618.914 183.707 619.871 183.453 620.691 182.945C621.551 182.438 622.215 181.734 622.684 180.836C623.152 179.977 623.387 179.039 623.387 178.023C623.387 177.242 623.25 176.52 622.977 175.855C622.703 175.191 622.293 174.605 621.746 174.098L591.395 143.512C594.52 139.684 596.961 135.348 598.719 130.504C600.516 125.66 601.414 120.562 601.414 115.211C601.414 108.961 600.223 103.082 597.84 97.5742C595.496 92.0664 592.234 87.2422 588.055 83.1016C583.875 78.9219 579.031 75.6602 573.523 73.3164C568.055 70.9336 562.195 69.7422 555.945 69.7422C549.695 69.7422 543.816 70.9336 538.309 73.3164C532.84 75.6602 528.016 78.9219 523.836 83.1016C519.656 87.2422 516.375 92.0664 513.992 97.5742C511.648 103.082 510.477 108.961 510.477 115.211ZM518.094 115.211C518.094 109.977 519.07 105.074 521.023 100.504C522.977 95.9336 525.691 91.9102 529.168 88.4336C532.645 84.957 536.668 82.2422 541.238 80.2891C545.809 78.2969 550.711 77.3008 555.945 77.3008C561.18 77.3008 566.082 78.2969 570.652 80.2891C575.223 82.2422 579.227 84.957 582.664 88.4336C586.141 91.9102 588.855 95.9336 590.809 100.504C592.801 105.074 593.797 109.977 593.797 115.211C593.797 120.406 592.801 125.309 590.809 129.918C588.855 134.488 586.141 138.512 582.664 141.988C579.227 145.426 575.223 148.141 570.652 150.133C566.082 152.086 561.18 153.062 555.945 153.062C550.711 153.062 545.809 152.086 541.238 150.133C536.668 148.141 532.645 145.426 529.168 141.988C525.691 138.512 522.977 134.488 521.023 129.918C519.07 125.309 518.094 120.406 518.094 115.211Z" fill="#222222"/>
<path d="M775.941 92.7695C775.941 97.1055 776.391 100.953 777.289 104.312C778.227 107.672 779.398 111.031 780.805 114.391C782.25 117.711 783.754 121.402 785.316 125.465C786.918 129.527 788.383 134.371 789.711 139.996C791.078 145.582 792.113 152.398 792.816 160.445C792.934 161.383 793.246 162.145 793.754 162.73C794.301 163.277 795.141 163.551 796.273 163.551H832.426C833.52 163.551 834.34 163.277 834.887 162.73C835.473 162.145 835.805 161.383 835.883 160.445C836.586 152.398 837.602 145.582 838.93 139.996C840.297 134.371 841.762 129.527 843.324 125.465C844.926 121.402 846.43 117.711 847.836 114.391C849.281 111.031 850.453 107.672 851.352 104.312C852.289 100.953 852.758 97.1055 852.758 92.7695C852.758 87.9258 851.762 83.375 849.77 79.1172C847.816 74.8594 845.082 71.1094 841.566 67.8672C838.09 64.5859 834.008 62.0273 829.32 60.1914C824.672 58.3555 819.672 57.4375 814.32 57.4375C808.969 57.4375 803.969 58.3555 799.32 60.1914C794.672 62.0273 790.59 64.5859 787.074 67.8672C783.598 71.1094 780.863 74.8594 778.871 79.1172C776.918 83.375 775.941 87.9258 775.941 92.7695ZM782.797 92.7695C782.797 88.7461 783.617 85.0156 785.258 81.5781C786.938 78.1016 789.223 75.0742 792.113 72.4961C795.043 69.918 798.402 67.9062 802.191 66.4609C806.02 65.0156 810.062 64.293 814.32 64.293C818.617 64.293 822.66 65.0156 826.449 66.4609C830.277 67.9062 833.637 69.918 836.527 72.4961C839.457 75.0742 841.742 78.1016 843.383 81.5781C845.062 85.0156 845.902 88.7461 845.902 92.7695C845.902 96.207 845.492 99.3125 844.672 102.086C843.852 104.859 842.797 107.73 841.508 110.699C840.219 113.629 838.812 117.086 837.289 121.07C835.805 125.016 834.379 129.859 833.012 135.602C831.645 141.305 830.492 148.336 829.555 156.695H799.145C798.207 148.336 797.035 141.305 795.629 135.602C794.262 129.859 792.816 125.016 791.293 121.07C789.809 117.086 788.422 113.629 787.133 110.699C785.844 107.73 784.789 104.859 783.969 102.086C783.188 99.3125 782.797 96.207 782.797 92.7695ZM796.332 175.152H832.367C833.188 175.152 833.891 174.859 834.477 174.273C835.062 173.688 835.355 172.965 835.355 172.105C835.355 171.285 835.062 170.582 834.477 169.996C833.891 169.41 833.188 169.117 832.367 169.117H796.332C795.473 169.117 794.75 169.41 794.164 169.996C793.617 170.582 793.344 171.285 793.344 172.105C793.344 172.965 793.617 173.688 794.164 174.273C794.75 174.859 795.473 175.152 796.332 175.152ZM814.32 191.617C818.852 191.617 822.699 190.621 825.863 188.629C829.027 186.676 830.727 184.059 830.961 180.777H797.738C797.934 184.059 799.613 186.676 802.777 188.629C805.941 190.621 809.789 191.617 814.32 191.617Z" fill="#222222"/>
<path d="M1006.94 110.113C1006.94 118.238 1009.17 126.285 1013.62 134.254C1018.07 142.223 1024.3 149.996 1032.31 157.574C1040.36 165.152 1049.73 172.398 1060.44 179.312C1060.98 179.664 1061.59 179.977 1062.25 180.25C1062.92 180.523 1063.5 180.66 1064.01 180.66C1064.56 180.66 1065.16 180.523 1065.83 180.25C1066.49 179.977 1067.08 179.664 1067.59 179.312C1078.33 172.398 1087.7 165.152 1095.71 157.574C1103.76 149.996 1109.99 142.223 1114.4 134.254C1118.86 126.285 1121.08 118.238 1121.08 110.113C1121.08 105.074 1120.28 100.465 1118.68 96.2852C1117.08 92.1055 1114.81 88.4922 1111.88 85.4453C1108.99 82.3594 1105.57 79.9961 1101.63 78.3555C1097.72 76.6758 1093.46 75.8359 1088.86 75.8359C1083.54 75.8359 1078.7 77.1055 1074.32 79.6445C1069.95 82.1445 1066.51 85.4844 1064.01 89.6641C1061.51 85.4844 1058.07 82.1445 1053.7 79.6445C1049.32 77.1055 1044.48 75.8359 1039.17 75.8359C1034.56 75.8359 1030.3 76.6758 1026.39 78.3555C1022.49 79.9961 1019.07 82.3594 1016.14 85.4453C1013.21 88.4922 1010.95 92.1055 1009.34 96.2852C1007.74 100.465 1006.94 105.074 1006.94 110.113ZM1014.15 110.113C1014.15 104.723 1015.22 99.9961 1017.37 95.9336C1019.56 91.8711 1022.53 88.707 1026.28 86.4414C1030.03 84.1758 1034.3 83.043 1039.11 83.043C1042.74 83.043 1045.93 83.707 1048.66 85.0352C1051.43 86.3242 1053.8 88.0039 1055.75 90.0742C1057.74 92.1055 1059.4 94.2539 1060.73 96.5195C1061.39 97.457 1061.96 98.1016 1062.43 98.4531C1062.9 98.8047 1063.43 98.9805 1064.01 98.9805C1064.6 98.9805 1065.12 98.8047 1065.59 98.4531C1066.06 98.1016 1066.61 97.457 1067.23 96.5195C1068.64 94.293 1070.34 92.1445 1072.33 90.0742C1074.32 88.0039 1076.69 86.3242 1079.42 85.0352C1082.16 83.707 1085.32 83.043 1088.91 83.043C1093.72 83.043 1098 84.1758 1101.75 86.4414C1105.5 88.707 1108.45 91.8711 1110.59 95.9336C1112.78 99.9961 1113.88 104.723 1113.88 110.113C1113.88 115.582 1112.57 121.109 1109.95 126.695C1107.33 132.242 1103.74 137.711 1099.17 143.102C1094.64 148.492 1089.44 153.688 1083.58 158.688C1077.72 163.648 1071.55 168.258 1065.07 172.516C1064.52 172.906 1064.17 173.102 1064.01 173.102C1063.86 173.102 1063.52 172.906 1063.02 172.516C1056.53 168.258 1050.36 163.648 1044.5 158.688C1038.64 153.688 1033.43 148.492 1028.86 143.102C1024.32 137.711 1020.73 132.242 1018.07 126.695C1015.46 121.109 1014.15 115.582 1014.15 110.113Z" fill="#222222"/>
<path d="M1280.04 128.336C1281.21 128.336 1282.17 127.965 1282.91 127.223C1283.7 126.441 1284.09 125.465 1284.09 124.293V118.902C1284.09 113.434 1285.71 109.156 1288.95 106.07C1292.19 102.945 1296.68 101.383 1302.43 101.383H1346.02V115.328C1346.02 116.305 1346.29 117.066 1346.84 117.613C1347.39 118.121 1348.17 118.375 1349.18 118.375C1349.65 118.375 1350.1 118.297 1350.53 118.141C1350.96 117.984 1351.37 117.75 1351.76 117.438L1373.56 99.8594C1374.46 99.1562 1374.91 98.2969 1374.91 97.2812C1374.95 96.2656 1374.5 95.3867 1373.56 94.6445L1351.76 77.125C1351.37 76.7734 1350.96 76.5391 1350.53 76.4219C1350.1 76.2656 1349.65 76.1875 1349.18 76.1875C1348.17 76.1875 1347.39 76.4414 1346.84 76.9492C1346.29 77.457 1346.02 78.2188 1346.02 79.2344V93.4727H1303.01C1297.58 93.4727 1292.84 94.4688 1288.77 96.4609C1284.71 98.4141 1281.55 101.246 1279.28 104.957C1277.05 108.668 1275.94 113.16 1275.94 118.434V124.293C1275.94 125.465 1276.31 126.441 1277.05 127.223C1277.84 127.965 1278.83 128.336 1280.04 128.336ZM1391.49 125.23C1390.28 125.23 1389.28 125.602 1388.5 126.344C1387.76 127.086 1387.39 128.062 1387.39 129.273V134.723C1387.39 140.191 1385.77 144.469 1382.52 147.555C1379.32 150.641 1374.83 152.184 1369.05 152.184H1325.45V138.355C1325.45 137.34 1325.18 136.578 1324.63 136.07C1324.12 135.523 1323.36 135.25 1322.35 135.25C1321.84 135.25 1321.37 135.328 1320.94 135.484C1320.51 135.641 1320.1 135.875 1319.71 136.188L1297.91 153.707C1297.05 154.449 1296.61 155.328 1296.57 156.344C1296.57 157.359 1297.02 158.238 1297.91 158.98L1319.71 176.5C1320.1 176.812 1320.51 177.047 1320.94 177.203C1321.37 177.398 1321.84 177.496 1322.35 177.496C1323.36 177.496 1324.12 177.223 1324.63 176.676C1325.18 176.129 1325.45 175.387 1325.45 174.449V160.094H1368.46C1373.93 160.094 1378.7 159.117 1382.76 157.164C1386.82 155.172 1389.96 152.32 1392.19 148.609C1394.46 144.898 1395.59 140.406 1395.59 135.133V129.273C1395.59 128.062 1395.2 127.086 1394.42 126.344C1393.64 125.602 1392.66 125.23 1391.49 125.23Z" fill="#222222"/>
<path d="M1281.56 275V256.1H1284.12V275H1281.56ZM1282.86 251.924C1282.33 251.924 1281.89 251.744 1281.53 251.384C1281.17 251.024 1280.99 250.592 1280.99 250.088C1280.99 249.584 1281.17 249.164 1281.53 248.828C1281.89 248.468 1282.33 248.288 1282.86 248.288C1283.39 248.288 1283.83 248.456 1284.19 248.792C1284.55 249.128 1284.73 249.548 1284.73 250.052C1284.73 250.58 1284.55 251.024 1284.19 251.384C1283.86 251.744 1283.41 251.924 1282.86 251.924ZM1297.21 275.18C1295.43 275.18 1294.06 274.7 1293.1 273.74C1292.14 272.78 1291.66 271.424 1291.66 269.672V251.924H1294.22V269.528C1294.22 270.632 1294.5 271.484 1295.05 272.084C1295.62 272.684 1296.44 272.984 1297.5 272.984C1298.62 272.984 1299.56 272.66 1300.3 272.012L1301.2 273.848C1300.7 274.304 1300.09 274.64 1299.37 274.856C1298.67 275.072 1297.95 275.18 1297.21 275.18ZM1288.28 258.224V256.1H1299.98V258.224H1288.28ZM1313.22 275.18C1311.25 275.18 1309.52 274.772 1308.03 273.956C1306.55 273.116 1305.38 271.976 1304.54 270.536C1303.7 269.072 1303.28 267.404 1303.28 265.532C1303.28 263.66 1303.68 262.004 1304.47 260.564C1305.29 259.124 1306.39 257.996 1307.78 257.18C1309.2 256.34 1310.78 255.92 1312.53 255.92C1314.31 255.92 1315.88 256.328 1317.25 257.144C1318.64 257.936 1319.73 259.064 1320.53 260.528C1321.32 261.968 1321.71 263.636 1321.71 265.532C1321.71 265.652 1321.7 265.784 1321.68 265.928C1321.68 266.048 1321.68 266.18 1321.68 266.324H1305.23V264.416H1320.31L1319.3 265.172C1319.3 263.804 1319 262.592 1318.4 261.536C1317.83 260.456 1317.03 259.616 1316.03 259.016C1315.02 258.416 1313.85 258.116 1312.53 258.116C1311.24 258.116 1310.07 258.416 1309.04 259.016C1308.01 259.616 1307.21 260.456 1306.63 261.536C1306.05 262.616 1305.77 263.852 1305.77 265.244V265.64C1305.77 267.08 1306.08 268.352 1306.7 269.456C1307.35 270.536 1308.24 271.388 1309.37 272.012C1310.52 272.612 1311.83 272.912 1313.29 272.912C1314.44 272.912 1315.51 272.708 1316.49 272.3C1317.5 271.892 1318.37 271.268 1319.09 270.428L1320.53 272.084C1319.69 273.092 1318.63 273.86 1317.36 274.388C1316.11 274.916 1314.73 275.18 1313.22 275.18ZM1326.92 275V256.1H1329.36V261.248L1329.11 260.348C1329.64 258.908 1330.53 257.816 1331.78 257.072C1333.02 256.304 1334.57 255.92 1336.42 255.92V258.404C1336.32 258.404 1336.23 258.404 1336.13 258.404C1336.04 258.38 1335.94 258.368 1335.84 258.368C1333.85 258.368 1332.29 258.98 1331.16 260.204C1330.04 261.404 1329.47 263.12 1329.47 265.352V275H1326.92ZM1351.52 275V270.824L1351.41 270.14V263.156C1351.41 261.548 1350.96 260.312 1350.05 259.448C1349.16 258.584 1347.83 258.152 1346.05 258.152C1344.83 258.152 1343.66 258.356 1342.56 258.764C1341.45 259.172 1340.52 259.712 1339.75 260.384L1338.6 258.476C1339.56 257.66 1340.71 257.036 1342.05 256.604C1343.4 256.148 1344.81 255.92 1346.3 255.92C1348.75 255.92 1350.63 256.532 1351.95 257.756C1353.3 258.956 1353.97 260.792 1353.97 263.264V275H1351.52ZM1345.01 275.18C1343.59 275.18 1342.35 274.952 1341.3 274.496C1340.27 274.016 1339.47 273.368 1338.92 272.552C1338.37 271.712 1338.09 270.752 1338.09 269.672C1338.09 268.688 1338.32 267.8 1338.78 267.008C1339.26 266.192 1340.03 265.544 1341.08 265.064C1342.16 264.56 1343.6 264.308 1345.4 264.308H1351.92V266.216H1345.47C1343.65 266.216 1342.38 266.54 1341.66 267.188C1340.96 267.836 1340.61 268.64 1340.61 269.6C1340.61 270.68 1341.03 271.544 1341.87 272.192C1342.71 272.84 1343.89 273.164 1345.4 273.164C1346.84 273.164 1348.08 272.84 1349.11 272.192C1350.17 271.52 1350.93 270.56 1351.41 269.312L1351.99 271.076C1351.51 272.324 1350.67 273.32 1349.47 274.064C1348.29 274.808 1346.81 275.18 1345.01 275.18ZM1366.89 275.18C1365.11 275.18 1363.74 274.7 1362.78 273.74C1361.82 272.78 1361.34 271.424 1361.34 269.672V251.924H1363.9V269.528C1363.9 270.632 1364.18 271.484 1364.73 272.084C1365.3 272.684 1366.12 272.984 1367.18 272.984C1368.3 272.984 1369.24 272.66 1369.98 272.012L1370.88 273.848C1370.38 274.304 1369.77 274.64 1369.05 274.856C1368.35 275.072 1367.63 275.18 1366.89 275.18ZM1357.96 258.224V256.1H1369.66V258.224H1357.96ZM1382.9 275.18C1380.93 275.18 1379.2 274.772 1377.71 273.956C1376.22 273.116 1375.06 271.976 1374.22 270.536C1373.38 269.072 1372.96 267.404 1372.96 265.532C1372.96 263.66 1373.36 262.004 1374.15 260.564C1374.96 259.124 1376.07 257.996 1377.46 257.18C1378.88 256.34 1380.46 255.92 1382.21 255.92C1383.99 255.92 1385.56 256.328 1386.93 257.144C1388.32 257.936 1389.41 259.064 1390.2 260.528C1391 261.968 1391.39 263.636 1391.39 265.532C1391.39 265.652 1391.38 265.784 1391.36 265.928C1391.36 266.048 1391.36 266.18 1391.36 266.324H1374.9V264.416H1389.99L1388.98 265.172C1388.98 263.804 1388.68 262.592 1388.08 261.536C1387.5 260.456 1386.71 259.616 1385.7 259.016C1384.7 258.416 1383.53 258.116 1382.21 258.116C1380.92 258.116 1379.75 258.416 1378.72 259.016C1377.69 259.616 1376.88 260.456 1376.31 261.536C1375.73 262.616 1375.44 263.852 1375.44 265.244V265.64C1375.44 267.08 1375.76 268.352 1376.38 269.456C1377.03 270.536 1377.92 271.388 1379.04 272.012C1380.2 272.612 1381.5 272.912 1382.97 272.912C1384.12 272.912 1385.19 272.708 1386.17 272.3C1387.18 271.892 1388.04 271.268 1388.76 270.428L1390.2 272.084C1389.36 273.092 1388.31 273.86 1387.04 274.388C1385.79 274.916 1384.41 275.18 1382.9 275.18Z" fill="#222222"/>
<path d="M1002.42 275L994.036 256.1H996.7L1004.4 273.632H1003.14L1010.96 256.1H1013.48L1005.05 275H1002.42ZM1028.36 275V270.824L1028.25 270.14V263.156C1028.25 261.548 1027.79 260.312 1026.88 259.448C1025.99 258.584 1024.66 258.152 1022.89 258.152C1021.66 258.152 1020.5 258.356 1019.39 258.764C1018.29 259.172 1017.35 259.712 1016.59 260.384L1015.43 258.476C1016.39 257.66 1017.55 257.036 1018.89 256.604C1020.23 256.148 1021.65 255.92 1023.14 255.92C1025.59 255.92 1027.47 256.532 1028.79 257.756C1030.13 258.956 1030.81 260.792 1030.81 263.264V275H1028.36ZM1021.84 275.18C1020.43 275.18 1019.19 274.952 1018.13 274.496C1017.1 274.016 1016.31 273.368 1015.76 272.552C1015.21 271.712 1014.93 270.752 1014.93 269.672C1014.93 268.688 1015.16 267.8 1015.61 267.008C1016.09 266.192 1016.86 265.544 1017.92 265.064C1019 264.56 1020.44 264.308 1022.24 264.308H1028.75V266.216H1022.31C1020.49 266.216 1019.21 266.54 1018.49 267.188C1017.8 267.836 1017.45 268.64 1017.45 269.6C1017.45 270.68 1017.87 271.544 1018.71 272.192C1019.55 272.84 1020.73 273.164 1022.24 273.164C1023.68 273.164 1024.91 272.84 1025.95 272.192C1027 271.52 1027.77 270.56 1028.25 269.312L1028.83 271.076C1028.35 272.324 1027.51 273.32 1026.31 274.064C1025.13 274.808 1023.64 275.18 1021.84 275.18ZM1037.75 275V248.288H1040.3V275H1037.75ZM1047.42 275V256.1H1049.97V275H1047.42ZM1048.71 251.924C1048.18 251.924 1047.74 251.744 1047.38 251.384C1047.02 251.024 1046.84 250.592 1046.84 250.088C1046.84 249.584 1047.02 249.164 1047.38 248.828C1047.74 248.468 1048.18 248.288 1048.71 248.288C1049.24 248.288 1049.68 248.456 1050.04 248.792C1050.4 249.128 1050.58 249.548 1050.58 250.052C1050.58 250.58 1050.4 251.024 1050.04 251.384C1049.71 251.744 1049.26 251.924 1048.71 251.924ZM1064.61 275.18C1062.81 275.18 1061.19 274.772 1059.75 273.956C1058.33 273.14 1057.22 272.012 1056.4 270.572C1055.58 269.108 1055.18 267.428 1055.18 265.532C1055.18 263.612 1055.58 261.932 1056.4 260.492C1057.22 259.052 1058.33 257.936 1059.75 257.144C1061.19 256.328 1062.81 255.92 1064.61 255.92C1066.26 255.92 1067.74 256.292 1069.04 257.036C1070.36 257.78 1071.4 258.872 1072.17 260.312C1072.96 261.728 1073.36 263.468 1073.36 265.532C1073.36 267.572 1072.97 269.312 1072.2 270.752C1071.44 272.192 1070.39 273.296 1069.07 274.064C1067.78 274.808 1066.29 275.18 1064.61 275.18ZM1064.79 272.912C1066.13 272.912 1067.33 272.612 1068.39 272.012C1069.47 271.388 1070.31 270.524 1070.91 269.42C1071.53 268.292 1071.84 266.996 1071.84 265.532C1071.84 264.044 1071.53 262.748 1070.91 261.644C1070.31 260.54 1069.47 259.688 1068.39 259.088C1067.33 258.464 1066.13 258.152 1064.79 258.152C1063.47 258.152 1062.28 258.464 1061.22 259.088C1060.17 259.688 1059.33 260.54 1058.7 261.644C1058.08 262.748 1057.77 264.044 1057.77 265.532C1057.77 266.996 1058.08 268.292 1058.7 269.42C1059.33 270.524 1060.17 271.388 1061.22 272.012C1062.28 272.612 1063.47 272.912 1064.79 272.912ZM1071.92 275V269.312L1072.17 265.496L1071.81 261.68V248.288H1074.36V275H1071.92ZM1093.33 275V270.824L1093.22 270.14V263.156C1093.22 261.548 1092.76 260.312 1091.85 259.448C1090.96 258.584 1089.63 258.152 1087.85 258.152C1086.63 258.152 1085.47 258.356 1084.36 258.764C1083.26 259.172 1082.32 259.712 1081.55 260.384L1080.4 258.476C1081.36 257.66 1082.51 257.036 1083.86 256.604C1085.2 256.148 1086.62 255.92 1088.11 255.92C1090.55 255.92 1092.44 256.532 1093.76 257.756C1095.1 258.956 1095.77 260.792 1095.77 263.264V275H1093.33ZM1086.81 275.18C1085.39 275.18 1084.16 274.952 1083.1 274.496C1082.07 274.016 1081.28 273.368 1080.73 272.552C1080.17 271.712 1079.9 270.752 1079.9 269.672C1079.9 268.688 1080.13 267.8 1080.58 267.008C1081.06 266.192 1081.83 265.544 1082.89 265.064C1083.97 264.56 1085.41 264.308 1087.21 264.308H1093.72V266.216H1087.28C1085.45 266.216 1084.18 266.54 1083.46 267.188C1082.77 267.836 1082.42 268.64 1082.42 269.6C1082.42 270.68 1082.84 271.544 1083.68 272.192C1084.52 272.84 1085.69 273.164 1087.21 273.164C1088.65 273.164 1089.88 272.84 1090.91 272.192C1091.97 271.52 1092.74 270.56 1093.22 269.312L1093.79 271.076C1093.31 272.324 1092.47 273.32 1091.27 274.064C1090.1 274.808 1088.61 275.18 1086.81 275.18ZM1108.69 275.18C1106.92 275.18 1105.55 274.7 1104.59 273.74C1103.63 272.78 1103.15 271.424 1103.15 269.672V251.924H1105.7V269.528C1105.7 270.632 1105.98 271.484 1106.53 272.084C1107.11 272.684 1107.92 272.984 1108.98 272.984C1110.11 272.984 1111.04 272.66 1111.79 272.012L1112.69 273.848C1112.18 274.304 1111.57 274.64 1110.85 274.856C1110.16 275.072 1109.44 275.18 1108.69 275.18ZM1099.76 258.224V256.1H1111.46V258.224H1099.76ZM1124.7 275.18C1122.73 275.18 1121.01 274.772 1119.52 273.956C1118.03 273.116 1116.87 271.976 1116.03 270.536C1115.19 269.072 1114.77 267.404 1114.77 265.532C1114.77 263.66 1115.16 262.004 1115.95 260.564C1116.77 259.124 1117.87 257.996 1119.27 257.18C1120.68 256.34 1122.27 255.92 1124.02 255.92C1125.79 255.92 1127.37 256.328 1128.73 257.144C1130.13 257.936 1131.22 259.064 1132.01 260.528C1132.8 261.968 1133.2 263.636 1133.2 265.532C1133.2 265.652 1133.19 265.784 1133.16 265.928C1133.16 266.048 1133.16 266.18 1133.16 266.324H1116.71V264.416H1131.79L1130.79 265.172C1130.79 263.804 1130.49 262.592 1129.89 261.536C1129.31 260.456 1128.52 259.616 1127.51 259.016C1126.5 258.416 1125.34 258.116 1124.02 258.116C1122.72 258.116 1121.56 258.416 1120.53 259.016C1119.49 259.616 1118.69 260.456 1118.11 261.536C1117.54 262.616 1117.25 263.852 1117.25 265.244V265.64C1117.25 267.08 1117.56 268.352 1118.19 269.456C1118.83 270.536 1119.72 271.388 1120.85 272.012C1122 272.612 1123.31 272.912 1124.77 272.912C1125.93 272.912 1126.99 272.708 1127.98 272.3C1128.99 271.892 1129.85 271.268 1130.57 270.428L1132.01 272.084C1131.17 273.092 1130.11 273.86 1128.84 274.388C1127.59 274.916 1126.21 275.18 1124.7 275.18Z" fill="#222222"/>
<path d="M761.564 275V256.1H764.12V275H761.564ZM762.86 251.924C762.332 251.924 761.888 251.744 761.528 251.384C761.168 251.024 760.988 250.592 760.988 250.088C760.988 249.584 761.168 249.164 761.528 248.828C761.888 248.468 762.332 248.288 762.86 248.288C763.388 248.288 763.832 248.456 764.192 248.792C764.552 249.128 764.732 249.548 764.732 250.052C764.732 250.58 764.552 251.024 764.192 251.384C763.856 251.744 763.412 251.924 762.86 251.924ZM778.756 275.18C776.956 275.18 775.336 274.772 773.896 273.956C772.48 273.14 771.364 272.012 770.548 270.572C769.732 269.108 769.324 267.428 769.324 265.532C769.324 263.612 769.732 261.932 770.548 260.492C771.364 259.052 772.48 257.936 773.896 257.144C775.336 256.328 776.956 255.92 778.756 255.92C780.412 255.92 781.888 256.292 783.184 257.036C784.504 257.78 785.548 258.872 786.316 260.312C787.108 261.728 787.504 263.468 787.504 265.532C787.504 267.572 787.12 269.312 786.352 270.752C785.584 272.192 784.54 273.296 783.22 274.064C781.924 274.808 780.436 275.18 778.756 275.18ZM778.936 272.912C780.28 272.912 781.48 272.612 782.536 272.012C783.616 271.388 784.456 270.524 785.056 269.42C785.68 268.292 785.992 266.996 785.992 265.532C785.992 264.044 785.68 262.748 785.056 261.644C784.456 260.54 783.616 259.688 782.536 259.088C781.48 258.464 780.28 258.152 778.936 258.152C777.616 258.152 776.428 258.464 775.372 259.088C774.316 259.688 773.476 260.54 772.852 261.644C772.228 262.748 771.916 264.044 771.916 265.532C771.916 266.996 772.228 268.292 772.852 269.42C773.476 270.524 774.316 271.388 775.372 272.012C776.428 272.612 777.616 272.912 778.936 272.912ZM786.064 275V269.312L786.316 265.496L785.956 261.68V248.288H788.512V275H786.064ZM803.658 275.18C801.69 275.18 799.962 274.772 798.474 273.956C796.986 273.116 795.822 271.976 794.982 270.536C794.142 269.072 793.722 267.404 793.722 265.532C793.722 263.66 794.118 262.004 794.91 260.564C795.726 259.124 796.83 257.996 798.222 257.18C799.638 256.34 801.222 255.92 802.974 255.92C804.75 255.92 806.322 256.328 807.69 257.144C809.082 257.936 810.174 259.064 810.966 260.528C811.758 261.968 812.154 263.636 812.154 265.532C812.154 265.652 812.142 265.784 812.118 265.928C812.118 266.048 812.118 266.18 812.118 266.324H795.666V264.416H810.75L809.742 265.172C809.742 263.804 809.442 262.592 808.842 261.536C808.266 260.456 807.474 259.616 806.466 259.016C805.458 258.416 804.294 258.116 802.974 258.116C801.678 258.116 800.514 258.416 799.482 259.016C798.45 259.616 797.646 260.456 797.07 261.536C796.494 262.616 796.206 263.852 796.206 265.244V265.64C796.206 267.08 796.518 268.352 797.142 269.456C797.79 270.536 798.678 271.388 799.806 272.012C800.958 272.612 802.266 272.912 803.73 272.912C804.882 272.912 805.95 272.708 806.934 272.3C807.942 271.892 808.806 271.268 809.526 270.428L810.966 272.084C810.126 273.092 809.07 273.86 807.798 274.388C806.55 274.916 805.17 275.18 803.658 275.18ZM828.674 275V270.824L828.566 270.14V263.156C828.566 261.548 828.11 260.312 827.198 259.448C826.31 258.584 824.978 258.152 823.202 258.152C821.978 258.152 820.814 258.356 819.71 258.764C818.606 259.172 817.67 259.712 816.902 260.384L815.75 258.476C816.71 257.66 817.862 257.036 819.206 256.604C820.55 256.148 821.966 255.92 823.454 255.92C825.902 255.92 827.786 256.532 829.106 257.756C830.45 258.956 831.122 260.792 831.122 263.264V275H828.674ZM822.158 275.18C820.742 275.18 819.506 274.952 818.45 274.496C817.418 274.016 816.626 273.368 816.074 272.552C815.522 271.712 815.246 270.752 815.246 269.672C815.246 268.688 815.474 267.8 815.93 267.008C816.41 266.192 817.178 265.544 818.234 265.064C819.314 264.56 820.754 264.308 822.554 264.308H829.07V266.216H822.626C820.802 266.216 819.53 266.54 818.81 267.188C818.114 267.836 817.766 268.64 817.766 269.6C817.766 270.68 818.186 271.544 819.026 272.192C819.866 272.84 821.042 273.164 822.554 273.164C823.994 273.164 825.23 272.84 826.262 272.192C827.318 271.52 828.086 270.56 828.566 269.312L829.142 271.076C828.662 272.324 827.822 273.32 826.622 274.064C825.446 274.808 823.958 275.18 822.158 275.18ZM844.04 275.18C842.264 275.18 840.896 274.7 839.936 273.74C838.976 272.78 838.496 271.424 838.496 269.672V251.924H841.052V269.528C841.052 270.632 841.328 271.484 841.88 272.084C842.456 272.684 843.272 272.984 844.328 272.984C845.456 272.984 846.392 272.66 847.136 272.012L848.036 273.848C847.532 274.304 846.92 274.64 846.2 274.856C845.504 275.072 844.784 275.18 844.04 275.18ZM835.112 258.224V256.1H846.812V258.224H835.112ZM860.049 275.18C858.081 275.18 856.353 274.772 854.865 273.956C853.377 273.116 852.213 271.976 851.373 270.536C850.533 269.072 850.113 267.404 850.113 265.532C850.113 263.66 850.509 262.004 851.301 260.564C852.117 259.124 853.221 257.996 854.613 257.18C856.029 256.34 857.613 255.92 859.365 255.92C861.141 255.92 862.713 256.328 864.081 257.144C865.473 257.936 866.565 259.064 867.357 260.528C868.149 261.968 868.545 263.636 868.545 265.532C868.545 265.652 868.533 265.784 868.509 265.928C868.509 266.048 868.509 266.18 868.509 266.324H852.057V264.416H867.141L866.133 265.172C866.133 263.804 865.833 262.592 865.233 261.536C864.657 260.456 863.865 259.616 862.857 259.016C861.849 258.416 860.685 258.116 859.365 258.116C858.069 258.116 856.905 258.416 855.873 259.016C854.841 259.616 854.037 260.456 853.461 261.536C852.885 262.616 852.597 263.852 852.597 265.244V265.64C852.597 267.08 852.909 268.352 853.533 269.456C854.181 270.536 855.069 271.388 856.197 272.012C857.349 272.612 858.657 272.912 860.121 272.912C861.273 272.912 862.341 272.708 863.325 272.3C864.333 271.892 865.197 271.268 865.917 270.428L867.357 272.084C866.517 273.092 865.461 273.86 864.189 274.388C862.941 274.916 861.561 275.18 860.049 275.18Z" fill="#222222"/>
<path d="M514.408 275V270.824L514.3 270.14V263.156C514.3 261.548 513.844 260.312 512.932 259.448C512.044 258.584 510.712 258.152 508.936 258.152C507.712 258.152 506.548 258.356 505.444 258.764C504.34 259.172 503.404 259.712 502.636 260.384L501.484 258.476C502.444 257.66 503.596 257.036 504.94 256.604C506.284 256.148 507.7 255.92 509.188 255.92C511.636 255.92 513.52 256.532 514.84 257.756C516.184 258.956 516.856 260.792 516.856 263.264V275H514.408ZM507.892 275.18C506.476 275.18 505.24 274.952 504.184 274.496C503.152 274.016 502.36 273.368 501.808 272.552C501.256 271.712 500.98 270.752 500.98 269.672C500.98 268.688 501.208 267.8 501.664 267.008C502.144 266.192 502.912 265.544 503.968 265.064C505.048 264.56 506.488 264.308 508.288 264.308H514.804V266.216H508.36C506.536 266.216 505.264 266.54 504.544 267.188C503.848 267.836 503.5 268.64 503.5 269.6C503.5 270.68 503.92 271.544 504.76 272.192C505.6 272.84 506.776 273.164 508.288 273.164C509.728 273.164 510.964 272.84 511.996 272.192C513.052 271.52 513.82 270.56 514.3 269.312L514.876 271.076C514.396 272.324 513.556 273.32 512.356 274.064C511.18 274.808 509.692 275.18 507.892 275.18ZM533.446 255.92C534.982 255.92 536.326 256.22 537.478 256.82C538.654 257.396 539.566 258.284 540.214 259.484C540.886 260.684 541.222 262.196 541.222 264.02V275H538.666V264.272C538.666 262.28 538.162 260.78 537.154 259.772C536.17 258.74 534.778 258.224 532.978 258.224C531.634 258.224 530.458 258.5 529.45 259.052C528.466 259.58 527.698 260.36 527.146 261.392C526.618 262.4 526.354 263.624 526.354 265.064V275H523.798V256.1H526.246V261.284L525.85 260.312C526.45 258.944 527.41 257.876 528.73 257.108C530.05 256.316 531.622 255.92 533.446 255.92ZM559.971 275V270.824L559.863 270.14V263.156C559.863 261.548 559.407 260.312 558.495 259.448C557.607 258.584 556.275 258.152 554.499 258.152C553.275 258.152 552.111 258.356 551.007 258.764C549.903 259.172 548.967 259.712 548.199 260.384L547.047 258.476C548.007 257.66 549.159 257.036 550.503 256.604C551.847 256.148 553.263 255.92 554.751 255.92C557.199 255.92 559.083 256.532 560.403 257.756C561.747 258.956 562.419 260.792 562.419 263.264V275H559.971ZM553.455 275.18C552.039 275.18 550.803 274.952 549.747 274.496C548.715 274.016 547.923 273.368 547.371 272.552C546.819 271.712 546.543 270.752 546.543 269.672C546.543 268.688 546.771 267.8 547.227 267.008C547.707 266.192 548.475 265.544 549.531 265.064C550.611 264.56 552.051 264.308 553.851 264.308H560.367V266.216H553.923C552.099 266.216 550.827 266.54 550.107 267.188C549.411 267.836 549.062 268.64 549.062 269.6C549.062 270.68 549.483 271.544 550.323 272.192C551.163 272.84 552.339 273.164 553.851 273.164C555.291 273.164 556.527 272.84 557.559 272.192C558.615 271.52 559.383 270.56 559.863 269.312L560.439 271.076C559.959 272.324 559.119 273.32 557.919 274.064C556.743 274.808 555.255 275.18 553.455 275.18ZM569.361 275V248.288H571.917V275H569.361ZM579.173 282.164C578.285 282.164 577.433 282.02 576.617 281.732C575.825 281.444 575.141 281.012 574.565 280.436L575.753 278.528C576.233 278.984 576.749 279.332 577.301 279.572C577.877 279.836 578.513 279.968 579.209 279.968C580.049 279.968 580.769 279.728 581.369 279.248C581.993 278.792 582.581 277.976 583.133 276.8L584.357 274.028L584.645 273.632L592.421 256.1H594.941L585.473 277.268C584.945 278.492 584.357 279.464 583.709 280.184C583.085 280.904 582.401 281.408 581.657 281.696C580.913 282.008 580.085 282.164 579.173 282.164ZM584.213 275.54L575.501 256.1H578.165L585.869 273.452L584.213 275.54ZM603.406 275.18C601.846 275.18 600.37 274.964 598.978 274.532C597.586 274.076 596.494 273.512 595.702 272.84L596.854 270.824C597.622 271.4 598.606 271.904 599.806 272.336C601.006 272.744 602.266 272.948 603.586 272.948C605.386 272.948 606.682 272.672 607.474 272.12C608.266 271.544 608.662 270.788 608.662 269.852C608.662 269.156 608.434 268.616 607.978 268.232C607.546 267.824 606.97 267.524 606.25 267.332C605.53 267.116 604.726 266.936 603.838 266.792C602.95 266.648 602.062 266.48 601.174 266.288C600.31 266.096 599.518 265.82 598.798 265.46C598.078 265.076 597.49 264.56 597.034 263.912C596.602 263.264 596.386 262.4 596.386 261.32C596.386 260.288 596.674 259.364 597.25 258.548C597.826 257.732 598.666 257.096 599.77 256.64C600.898 256.16 602.266 255.92 603.874 255.92C605.098 255.92 606.322 256.088 607.546 256.424C608.77 256.736 609.778 257.156 610.57 257.684L609.454 259.736C608.614 259.16 607.714 258.752 606.754 258.512C605.794 258.248 604.834 258.116 603.874 258.116C602.17 258.116 600.91 258.416 600.094 259.016C599.302 259.592 598.906 260.336 598.906 261.248C598.906 261.968 599.122 262.532 599.554 262.94C600.01 263.348 600.598 263.672 601.318 263.912C602.062 264.128 602.866 264.308 603.73 264.452C604.618 264.596 605.494 264.776 606.358 264.992C607.246 265.184 608.05 265.46 608.77 265.82C609.514 266.156 610.102 266.648 610.534 267.296C610.99 267.92 611.218 268.748 611.218 269.78C611.218 270.884 610.906 271.844 610.282 272.66C609.682 273.452 608.794 274.076 607.618 274.532C606.466 274.964 605.062 275.18 603.406 275.18ZM623.936 275.18C621.968 275.18 620.24 274.772 618.752 273.956C617.264 273.116 616.1 271.976 615.26 270.536C614.42 269.072 614 267.404 614 265.532C614 263.66 614.396 262.004 615.188 260.564C616.004 259.124 617.108 257.996 618.5 257.18C619.916 256.34 621.5 255.92 623.252 255.92C625.028 255.92 626.6 256.328 627.968 257.144C629.36 257.936 630.452 259.064 631.244 260.528C632.036 261.968 632.432 263.636 632.432 265.532C632.432 265.652 632.42 265.784 632.396 265.928C632.396 266.048 632.396 266.18 632.396 266.324H615.944V264.416H631.028L630.02 265.172C630.02 263.804 629.72 262.592 629.12 261.536C628.544 260.456 627.752 259.616 626.744 259.016C625.736 258.416 624.572 258.116 623.252 258.116C621.956 258.116 620.792 258.416 619.76 259.016C618.728 259.616 617.924 260.456 617.348 261.536C616.772 262.616 616.484 263.852 616.484 265.244V265.64C616.484 267.08 616.796 268.352 617.42 269.456C618.068 270.536 618.956 271.388 620.084 272.012C621.236 272.612 622.544 272.912 624.008 272.912C625.16 272.912 626.228 272.708 627.212 272.3C628.22 271.892 629.084 271.268 629.804 270.428L631.244 272.084C630.404 273.092 629.348 273.86 628.076 274.388C626.828 274.916 625.448 275.18 623.936 275.18Z" fill="#222222"/>
<path d="M194.376 275.18C192.768 275.18 191.364 274.88 190.164 274.28C188.964 273.68 188.028 272.78 187.356 271.58C186.708 270.38 186.384 268.88 186.384 267.08V256.1H188.94V266.792C188.94 268.808 189.432 270.332 190.416 271.364C191.424 272.372 192.828 272.876 194.628 272.876C195.948 272.876 197.088 272.612 198.048 272.084C199.032 271.532 199.776 270.74 200.28 269.708C200.808 268.676 201.072 267.44 201.072 266V256.1H203.628V275H201.18V269.816L201.576 270.752C200.976 272.144 200.04 273.236 198.768 274.028C197.52 274.796 196.056 275.18 194.376 275.18ZM220.4 255.92C221.936 255.92 223.28 256.22 224.432 256.82C225.608 257.396 226.52 258.284 227.168 259.484C227.84 260.684 228.176 262.196 228.176 264.02V275H225.62V264.272C225.62 262.28 225.116 260.78 224.108 259.772C223.124 258.74 221.732 258.224 219.932 258.224C218.588 258.224 217.412 258.5 216.404 259.052C215.42 259.58 214.652 260.36 214.1 261.392C213.572 262.4 213.308 263.624 213.308 265.064V275H210.752V256.1H213.2V261.284L212.804 260.312C213.404 258.944 214.364 257.876 215.684 257.108C217.004 256.316 218.576 255.92 220.4 255.92ZM242.604 275.18C240.804 275.18 239.184 274.772 237.744 273.956C236.328 273.14 235.212 272.012 234.396 270.572C233.58 269.108 233.172 267.428 233.172 265.532C233.172 263.612 233.58 261.932 234.396 260.492C235.212 259.052 236.328 257.936 237.744 257.144C239.184 256.328 240.804 255.92 242.604 255.92C244.26 255.92 245.736 256.292 247.032 257.036C248.352 257.78 249.396 258.872 250.164 260.312C250.956 261.728 251.352 263.468 251.352 265.532C251.352 267.572 250.968 269.312 250.2 270.752C249.432 272.192 248.388 273.296 247.068 274.064C245.772 274.808 244.284 275.18 242.604 275.18ZM242.784 272.912C244.128 272.912 245.328 272.612 246.384 272.012C247.464 271.388 248.304 270.524 248.904 269.42C249.528 268.292 249.84 266.996 249.84 265.532C249.84 264.044 249.528 262.748 248.904 261.644C248.304 260.54 247.464 259.688 246.384 259.088C245.328 258.464 244.128 258.152 242.784 258.152C241.464 258.152 240.276 258.464 239.22 259.088C238.164 259.688 237.324 260.54 236.7 261.644C236.076 262.748 235.764 264.044 235.764 265.532C235.764 266.996 236.076 268.292 236.7 269.42C237.324 270.524 238.164 271.388 239.22 272.012C240.276 272.612 241.464 272.912 242.784 272.912ZM249.912 275V269.312L250.164 265.496L249.804 261.68V248.288H252.36V275H249.912ZM267.506 275.18C265.538 275.18 263.81 274.772 262.322 273.956C260.834 273.116 259.67 271.976 258.83 270.536C257.99 269.072 257.57 267.404 257.57 265.532C257.57 263.66 257.966 262.004 258.758 260.564C259.574 259.124 260.678 257.996 262.07 257.18C263.486 256.34 265.07 255.92 266.822 255.92C268.598 255.92 270.17 256.328 271.538 257.144C272.93 257.936 274.022 259.064 274.814 260.528C275.606 261.968 276.002 263.636 276.002 265.532C276.002 265.652 275.99 265.784 275.966 265.928C275.966 266.048 275.966 266.18 275.966 266.324H259.514V264.416H274.598L273.59 265.172C273.59 263.804 273.29 262.592 272.69 261.536C272.114 260.456 271.322 259.616 270.314 259.016C269.306 258.416 268.142 258.116 266.822 258.116C265.526 258.116 264.362 258.416 263.33 259.016C262.298 259.616 261.494 260.456 260.918 261.536C260.342 262.616 260.054 263.852 260.054 265.244V265.64C260.054 267.08 260.366 268.352 260.99 269.456C261.638 270.536 262.526 271.388 263.654 272.012C264.806 272.612 266.114 272.912 267.578 272.912C268.73 272.912 269.798 272.708 270.782 272.3C271.79 271.892 272.654 271.268 273.374 270.428L274.814 272.084C273.974 273.092 272.918 273.86 271.646 274.388C270.398 274.916 269.018 275.18 267.506 275.18ZM281.205 275V256.1H283.653V261.248L283.401 260.348C283.929 258.908 284.817 257.816 286.065 257.072C287.313 256.304 288.861 255.92 290.709 255.92V258.404C290.613 258.404 290.517 258.404 290.421 258.404C290.325 258.38 290.229 258.368 290.133 258.368C288.141 258.368 286.581 258.98 285.453 260.204C284.325 261.404 283.761 263.12 283.761 265.352V275H281.205ZM300.66 275.18C299.1 275.18 297.624 274.964 296.232 274.532C294.84 274.076 293.748 273.512 292.956 272.84L294.108 270.824C294.876 271.4 295.86 271.904 297.06 272.336C298.26 272.744 299.52 272.948 300.84 272.948C302.64 272.948 303.936 272.672 304.728 272.12C305.52 271.544 305.916 270.788 305.916 269.852C305.916 269.156 305.688 268.616 305.232 268.232C304.8 267.824 304.224 267.524 303.504 267.332C302.784 267.116 301.98 266.936 301.092 266.792C300.204 266.648 299.316 266.48 298.428 266.288C297.564 266.096 296.772 265.82 296.052 265.46C295.332 265.076 294.744 264.56 294.288 263.912C293.856 263.264 293.64 262.4 293.64 261.32C293.64 260.288 293.928 259.364 294.504 258.548C295.08 257.732 295.92 257.096 297.024 256.64C298.152 256.16 299.52 255.92 301.128 255.92C302.352 255.92 303.576 256.088 304.8 256.424C306.024 256.736 307.032 257.156 307.824 257.684L306.708 259.736C305.868 259.16 304.968 258.752 304.008 258.512C303.048 258.248 302.088 258.116 301.128 258.116C299.424 258.116 298.164 258.416 297.348 259.016C296.556 259.592 296.16 260.336 296.16 261.248C296.16 261.968 296.376 262.532 296.808 262.94C297.264 263.348 297.852 263.672 298.572 263.912C299.316 264.128 300.12 264.308 300.984 264.452C301.872 264.596 302.748 264.776 303.612 264.992C304.5 265.184 305.304 265.46 306.024 265.82C306.768 266.156 307.356 266.648 307.788 267.296C308.244 267.92 308.472 268.748 308.472 269.78C308.472 270.884 308.16 271.844 307.536 272.66C306.936 273.452 306.048 274.076 304.872 274.532C303.72 274.964 302.316 275.18 300.66 275.18ZM319.138 275.18C317.362 275.18 315.994 274.7 315.034 273.74C314.074 272.78 313.594 271.424 313.594 269.672V251.924H316.15V269.528C316.15 270.632 316.426 271.484 316.978 272.084C317.554 272.684 318.37 272.984 319.426 272.984C320.554 272.984 321.49 272.66 322.234 272.012L323.134 273.848C322.63 274.304 322.018 274.64 321.298 274.856C320.602 275.072 319.882 275.18 319.138 275.18ZM310.21 258.224V256.1H321.91V258.224H310.21ZM339.631 275V270.824L339.523 270.14V263.156C339.523 261.548 339.067 260.312 338.155 259.448C337.267 258.584 335.935 258.152 334.159 258.152C332.935 258.152 331.771 258.356 330.667 258.764C329.563 259.172 328.627 259.712 327.859 260.384L326.707 258.476C327.667 257.66 328.819 257.036 330.163 256.604C331.507 256.148 332.923 255.92 334.411 255.92C336.859 255.92 338.743 256.532 340.063 257.756C341.407 258.956 342.079 260.792 342.079 263.264V275H339.631ZM333.115 275.18C331.699 275.18 330.463 274.952 329.407 274.496C328.375 274.016 327.583 273.368 327.031 272.552C326.479 271.712 326.203 270.752 326.203 269.672C326.203 268.688 326.431 267.8 326.887 267.008C327.367 266.192 328.135 265.544 329.191 265.064C330.271 264.56 331.711 264.308 333.511 264.308H340.027V266.216H333.583C331.759 266.216 330.487 266.54 329.767 267.188C329.071 267.836 328.723 268.64 328.723 269.6C328.723 270.68 329.143 271.544 329.983 272.192C330.823 272.84 331.999 273.164 333.511 273.164C334.951 273.164 336.187 272.84 337.219 272.192C338.275 271.52 339.043 270.56 339.523 269.312L340.099 271.076C339.619 272.324 338.779 273.32 337.579 274.064C336.403 274.808 334.915 275.18 333.115 275.18ZM358.669 255.92C360.205 255.92 361.549 256.22 362.701 256.82C363.877 257.396 364.789 258.284 365.437 259.484C366.109 260.684 366.445 262.196 366.445 264.02V275H363.889V264.272C363.889 262.28 363.385 260.78 362.377 259.772C361.393 258.74 360.001 258.224 358.201 258.224C356.857 258.224 355.681 258.5 354.673 259.052C353.689 259.58 352.921 260.36 352.369 261.392C351.841 262.4 351.577 263.624 351.577 265.064V275H349.021V256.1H351.469V261.284L351.073 260.312C351.673 258.944 352.633 257.876 353.953 257.108C355.273 256.316 356.845 255.92 358.669 255.92ZM380.873 275.18C379.073 275.18 377.453 274.772 376.013 273.956C374.597 273.14 373.481 272.012 372.665 270.572C371.849 269.108 371.441 267.428 371.441 265.532C371.441 263.612 371.849 261.932 372.665 260.492C373.481 259.052 374.597 257.936 376.013 257.144C377.453 256.328 379.073 255.92 380.873 255.92C382.529 255.92 384.005 256.292 385.301 257.036C386.621 257.78 387.665 258.872 388.433 260.312C389.225 261.728 389.621 263.468 389.621 265.532C389.621 267.572 389.237 269.312 388.469 270.752C387.701 272.192 386.657 273.296 385.337 274.064C384.041 274.808 382.553 275.18 380.873 275.18ZM381.053 272.912C382.397 272.912 383.597 272.612 384.653 272.012C385.733 271.388 386.573 270.524 387.173 269.42C387.797 268.292 388.109 266.996 388.109 265.532C388.109 264.044 387.797 262.748 387.173 261.644C386.573 260.54 385.733 259.688 384.653 259.088C383.597 258.464 382.397 258.152 381.053 258.152C379.733 258.152 378.545 258.464 377.489 259.088C376.433 259.688 375.593 260.54 374.969 261.644C374.345 262.748 374.033 264.044 374.033 265.532C374.033 266.996 374.345 268.292 374.969 269.42C375.593 270.524 376.433 271.388 377.489 272.012C378.545 272.612 379.733 272.912 381.053 272.912ZM388.181 275V269.312L388.433 265.496L388.073 261.68V248.288H390.629V275H388.181Z" fill="#222222"/>
</svg>
