<svg width="968" height="465" viewBox="0 0 968 465" fill="none" xmlns="http://www.w3.org/2000/svg">
<g clip-path="url(#clip0_118_2446)">
<rect width="968" height="465" transform="matrix(-1 0 0 -1 968 465)" fill="#FEFCF7"/>
<circle cx="484" cy="360" r="271" fill="#282828"/>
<circle cx="483.5" cy="359.5" r="225.5" fill="#3D3C3C"/>
<circle cx="483.5" cy="359.5" r="180.5" fill="#504E4E"/>
<circle cx="483.5" cy="359.5" r="135.5" fill="#A5A2A2"/>
<circle cx="484" cy="361" r="90" fill="#D5D3D3"/>
<circle cx="483" cy="359" r="45" fill="#EBEBEB"/>
<mask id="mask0_118_2446" style="mask-type:alpha" maskUnits="userSpaceOnUse" x="213" y="89" width="271" height="542">
<rect x="213" y="89" width="271" height="542" fill="#D9D9D9"/>
</mask>
<g mask="url(#mask0_118_2446)">
<circle cx="484" cy="360" r="271" fill="#633DFF"/>
<circle cx="483.5" cy="359.5" r="225.5" fill="#8B55FF"/>
<circle cx="483.5" cy="359.5" r="180.5" fill="#DA45FF"/>
<circle cx="483.5" cy="359.5" r="135.5" fill="#FB38FF"/>
<circle cx="484" cy="361" r="90" fill="#FF70E8"/>
<circle cx="483" cy="359" r="45" fill="#FFBAE8"/>
</g>
</g>
<defs>
<clipPath id="clip0_118_2446">
<rect width="968" height="465" fill="white" transform="matrix(-1 0 0 -1 968 465)"/>
</clipPath>
</defs>
</svg>
