<svg width="64" height="64" viewBox="0 0 64 64" fill="none" xmlns="http://www.w3.org/2000/svg">
<path d="M6 43.4V21H13.424V32.648L21.136 21H27V43.4H20.816V31.784L13.136 43.4H6Z" fill="#222222"/>
<path d="M22.0005 43.4L22 21H27.208L36.168 35.624H32.904L41.608 21H47.816L47.88 43.4H41L40.936 31.368H42.024L36.0005 43.4H32.6725L26.536 31.368H27.88V43.4H22.0005Z" fill="#222222"/>
<path d="M53.224 43.256C52.0293 43.256 51.0267 42.872 50.216 42.104C49.4053 41.3147 49 40.312 49 39.096C49 37.8587 49.4053 36.8667 50.216 36.12C51.0267 35.3733 52.0293 35 53.224 35C54.4187 35 55.4213 35.3733 56.232 36.12C57.0427 36.8667 57.448 37.8587 57.448 39.096C57.448 40.312 57.0427 41.3147 56.232 42.104C55.4213 42.872 54.4187 43.256 53.224 43.256Z" fill="#222222"/>
</svg>
