<svg width="52" height="23" viewBox="0 0 52 23" fill="none" xmlns="http://www.w3.org/2000/svg">
<path d="M0 22.4V0H7.424V11.648L15.136 0H21V22.4H14.816V10.784L7.136 22.4H0Z" fill="#222222"/>
<path d="M16.0005 22.4L16 0H21.208L30.168 14.624H26.904L35.608 0H41.816L41.88 22.4H35L34.936 10.368H36.024L30.0005 22.4H26.6725L20.536 10.368H21.88V22.4H16.0005Z" fill="#222222"/>
<path d="M47.224 22.256C46.0293 22.256 45.0267 21.872 44.216 21.104C43.4053 20.3147 43 19.312 43 18.096C43 16.8587 43.4053 15.8667 44.216 15.12C45.0267 14.3733 46.0293 14 47.224 14C48.4187 14 49.4213 14.3733 50.232 15.12C51.0427 15.8667 51.448 16.8587 51.448 18.096C51.448 19.312 51.0427 20.3147 50.232 21.104C49.4213 21.872 48.4187 22.256 47.224 22.256Z" fill="#222222"/>
</svg>
